<?xml version="1.0" standalone="no"?>
<!DOCTYPE svg PUBLIC "-//W3C//DTD SVG 20010904//EN"
 "http://www.w3.org/TR/2001/REC-SVG-20010904/DTD/svg10.dtd">
<svg xmlns="http://www.w3.org/2000/svg" width="512" height="512" viewBox="0 0 2890 2890" fill="#0054e9">
	<path d="M2265 2752 c-16 -11 -36 -26 -43 -35 -7 -9 -69 -141 -136 -294 l-123 -278 -135 -3 -136 -3 -21 36 c-49 84 -214 87 -256 4 -20 -37 -19 -142 1 -180 19 -37 67 -59 131 -59 57 0 105 26 128 70 l16 30 109 0 c61 0 110 -3 110 -7 0 -5 -12 -36 -27 -70 l-27 -63 -387 0 -386 0 -37 88 c-218 503 -292 670 -305 689 -37 50 -52 53 -311 53 -267 0 -284 -3 -320 -63 -15 -24 -20 -50 -20 -101 0 -77 -25 -16 315 -776 97 -217 266 -595 375 -840 109 -245 225 -503 257 -575 l59 -130 44 0 c84 0 83 1 -205 647 -141 315 -276 616 -300 668 -23 52 -133 299 -244 547 -214 479 -209 465 -161 508 20 18 36 20 195 20 213 0 211 1 272 -136 100 -228 253 -582 253 -589 0 -4 -17 -11 -37 -15 -96 -18 -133 -64 -133 -168 0 -66 5 -80 126 -355 244 -554 396 -898 441 -998 24 -56 58 -115 74 -130 28 -26 38 -29 112 -32 68 -2 87 0 114 17 54 34 68 66 67 151 0 71 -4 83 -77 250 -43 96 -110 248 -149 338 l-71 163 16 35 c21 43 22 135 2 174 -18 35 -46 52 -98 59 l-38 6 -84 194 c-47 107 -83 196 -81 198 1 2 154 2 338 1 l335 -3 -79 -180 c-193 -436 -188 -423 -188 -495 0 -53 5 -74 23 -101 41 -62 70 -69 270 -69 193 0 232 8 263 56 8 12 82 162 165 332 l149 311 0 71 c0 82 -15 118 -62 152 -31 21 -44 23 -195 27 -114 2 -163 6 -162 15 0 6 12 36 27 66 l27 55 245 5 c232 5 247 6 276 27 23 17 55 74 138 247 l108 226 -4 69 c-4 80 -24 115 -79 143 -29 15 -63 18 -234 18 -176 0 -204 -2 -230 -18z m390 -94 c15 -7 32 -23 39 -37 13 -24 6 -41 -81 -226 -59 -126 -105 -210 -124 -227 l-29 -28 -185 0 -185 0 14 33 c29 68 164 374 186 420 12 26 34 54 49 62 34 18 277 21 316 3z m-1559 -1078 c90 -209 92 -215 77 -244 -11 -20 -14 -49 -11 -98 3 -58 8 -72 30 -95 17 -17 42 -29 68 -32 l42 -6 156 -358 c168 -390 169 -393 110 -426 -50 -28 -71 0 -181 250 -54 123 -156 355 -227 514 -306 693 -283 636 -270 661 15 26 66 55 94 51 14 -1 41 -54 112 -217z m1159 206 c19 -8 40 -26 47 -40 10 -23 -3 -55 -136 -333 -95 -199 -158 -318 -177 -335 -29 -27 -32 -28 -150 -28 -87 0 -128 4 -149 15 -28 14 -46 47 -41 73 2 12 277 638 287 654 9 15 282 9 319 -6z"></path>			
</svg>
